<?xml version="1.0" standalone="no"?>
<!DOCTYPE svg PUBLIC "-//W3C//DTD SVG 20010904//EN"
 "http://www.w3.org/TR/2001/REC-SVG-20010904/DTD/svg10.dtd">
<svg version="1.0" xmlns="http://www.w3.org/2000/svg"
 width="251.000000pt" height="151.000000pt" viewBox="0 0 251.000000 151.000000"
 preserveAspectRatio="xMidYMid meet">
<metadata>
Created by potrace 1.16, written by Peter Selinger 2001-2019
</metadata>
<g transform="translate(0.000000,151.000000) scale(0.100000,-0.100000)"
fill="#000000" stroke="none">
<path d="M617 1056 c-106 -39 -150 -162 -94 -261 66 -116 251 -113 315 6 79
147 -65 313 -221 255z m133 -85 c38 -37 47 -75 29 -125 -29 -84 -143 -98 -190
-23 -69 109 71 238 161 148z"/>
<path d="M2172 1059 c-37 -11 -72 -60 -72 -101 0 -43 38 -76 115 -101 74 -24
94 -48 59 -74 -25 -19 -59 -16 -106 8 l-41 21 -20 -21 c-26 -26 -13 -43 49
-67 67 -26 140 -15 176 25 62 69 24 142 -91 174 -34 10 -64 24 -67 32 -16 41
54 59 111 29 28 -14 30 -14 47 8 24 31 23 32 -17 51 -46 22 -102 28 -143 16z"/>
<path d="M160 885 l0 -175 35 0 35 0 0 70 0 70 85 0 85 0 0 30 0 30 -85 0 -85
0 0 45 0 45 95 0 95 0 0 30 0 30 -130 0 -130 0 0 -175z"/>
<path d="M940 885 l0 -175 125 0 125 0 0 35 0 35 -90 0 -90 0 0 140 0 140 -35
0 -35 0 0 -175z"/>
<path d="M1270 885 l0 -175 130 0 130 0 0 35 0 35 -95 0 -95 0 0 40 0 40 85 0
85 0 0 30 0 30 -85 0 -85 0 0 40 0 40 95 0 95 0 0 30 0 30 -130 0 -130 0 0
-175z"/>
<path d="M1616 1048 c4 -7 34 -54 66 -104 57 -89 58 -92 58 -162 l0 -72 35 0
35 0 0 68 c0 65 2 70 53 147 30 44 62 92 71 108 l18 27 -40 0 c-40 0 -42 -2
-87 -71 l-46 -71 -45 71 c-44 68 -47 71 -86 71 -28 0 -37 -3 -32 -12z"/>
</g>
</svg>
