<?xml version="1.0" standalone="no"?>
<!DOCTYPE svg PUBLIC "-//W3C//DTD SVG 20010904//EN"
 "http://www.w3.org/TR/2001/REC-SVG-20010904/DTD/svg10.dtd">
<svg version="1.0" xmlns="http://www.w3.org/2000/svg"
 width="130.000000pt" height="111.000000pt" viewBox="0 0 130.000000 111.000000"
 preserveAspectRatio="xMidYMid meet">
<metadata>
Created by potrace 1.16, written by Peter Selinger 2001-2019
</metadata>
<g transform="translate(0.000000,111.000000) scale(0.100000,-0.100000)"
fill="#000000" stroke="none">
<path d="M100 550 l0 -470 560 0 560 0 0 470 0 470 -560 0 -560 0 0 -470z
m1085 0 l0 -445 -525 0 -525 0 -3 435 c-1 239 0 441 3 448 3 10 114 12 527 10
l523 -3 0 -445z"/>
<path d="M265 893 c14 -3 51 -59 120 -181 l100 -177 5 -170 5 -170 28 0 29 0
-1 167 c-2 140 1 172 15 195 16 28 16 28 -2 5 l-19 -22 -99 171 c-78 135 -96
173 -85 180 9 5 -10 8 -51 7 -36 0 -56 -3 -45 -5z"/>
</g>
</svg>
