<?xml version="1.0" standalone="no"?>
<!DOCTYPE svg PUBLIC "-//W3C//DTD SVG 20010904//EN"
 "http://www.w3.org/TR/2001/REC-SVG-20010904/DTD/svg10.dtd">
<svg version="1.0" xmlns="http://www.w3.org/2000/svg"
 width="1808.000000pt" height="838.000000pt" viewBox="0 0 1808.000000 838.000000"
 preserveAspectRatio="xMidYMid meet">
<metadata>
Created by potrace 1.16, written by Peter Selinger 2001-2019
</metadata>
<g transform="translate(0.000000,838.000000) scale(0.100000,-0.100000)"
fill="#000000" stroke="none">
<path d="M14042 3948 c-7 -7 -12 -18 -12 -24 0 -10 -153 -13 -697 -16 -673 -4
-703 -5 -823 -27 -213 -38 -434 -123 -599 -228 -286 -182 -530 -493 -631 -801
-58 -180 -73 -278 -74 -487 -1 -104 2 -224 6 -265 l6 -75 -15 55 c-18 67 -32
143 -43 235 -7 58 -8 49 -5 -55 14 -421 169 -777 469 -1076 251 -249 519 -386
887 -451 95 -16 171 -18 838 -18 l735 0 -1 33 c-1 17 -2 215 -3 440 -2 293 -5
381 -11 315 -17 -197 -62 -299 -183 -419 -163 -161 -357 -225 -726 -238 -187
-6 -437 7 -520 29 -71 18 -93 30 -55 30 14 0 25 -3 25 -6 0 -3 24 -6 53 -6 51
0 51 0 17 10 -259 71 -386 142 -556 311 -182 183 -288 382 -353 666 -64 279
-60 678 9 950 129 503 477 853 922 925 126 20 534 20 677 0 415 -59 624 -267
686 -685 11 -76 13 -32 14 403 1 503 0 512 -37 475z"/>
<path d="M17377 3940 c-5 -20 -14 -20 -809 -20 -441 0 -1008 -3 -1258 -6 -423
-6 -466 -4 -619 15 -190 24 -279 27 -156 5 386 -69 620 -241 680 -497 22 -95
23 -2155 1 -2237 -16 -58 -15 -79 2 -33 12 33 41 73 42 57 0 -17 -36 -116 -59
-162 -31 -61 -133 -165 -209 -213 -129 -81 -186 -97 -442 -124 -114 -11 -64
-13 545 -14 369 0 1045 2 1503 6 l832 6 0 470 c0 259 -2 468 -4 466 -2 -2 -9
-59 -15 -126 -14 -141 -36 -231 -74 -295 -109 -187 -265 -291 -522 -350 -83
-19 -130 -21 -582 -25 -358 -3 -493 -2 -493 6 0 7 7 14 17 18 14 6 14 7 -4 14
-21 8 -21 12 -22 699 l-2 691 458 -3 458 -3 58 -27 c32 -15 76 -41 97 -58 79
-63 147 -199 174 -348 13 -69 14 -14 14 553 0 561 -2 619 -13 530 -23 -181
-47 -237 -134 -319 -58 -54 -132 -91 -211 -106 -69 -13 -900 -14 -900 0 0 5 8
14 18 19 16 10 16 10 0 11 -17 0 -18 36 -18 615 l0 615 453 0 c538 0 617 -8
797 -80 87 -35 187 -107 247 -179 94 -114 165 -289 180 -444 3 -37 10 -70 16
-74 6 -4 8 3 4 18 -4 13 -7 232 -7 487 0 446 -1 462 -19 462 -10 0 -21 -9 -24
-20z"/>
<path d="M8989 3946 c-2 -3 -37 -6 -76 -7 -40 -1 -114 -10 -165 -20 -83 -16
-154 -18 -639 -19 -419 0 -570 3 -650 14 -57 8 -140 17 -184 20 l-80 5 105
-19 c374 -69 594 -223 677 -475 25 -78 26 -90 34 -420 4 -187 8 -579 8 -871 1
-463 3 -533 16 -538 20 -7 19 -43 -1 -54 -28 -16 -55 -3 -48 23 5 19 -49 81
-332 386 -466 503 -787 850 -934 1009 -119 130 -188 205 -480 520 -340 367
-406 435 -419 439 -10 2 -12 -3 -9 -17 4 -13 0 -23 -9 -26 -38 -15 -444 -5
-597 14 -186 23 -272 25 -151 4 385 -69 613 -234 680 -492 13 -47 16 -227 21
-1057 6 -892 5 -1010 -9 -1091 -9 -50 -19 -100 -23 -110 -6 -18 -6 -18 9 1 8
11 13 23 11 27 -3 5 -1 8 5 8 5 0 14 12 20 28 10 24 10 23 5 -13 -23 -159
-159 -330 -334 -424 -91 -48 -168 -66 -378 -86 -122 -11 -29 -13 813 -13 523
0 932 4 910 8 -22 4 -78 13 -125 20 -344 48 -585 231 -667 506 -16 54 -18 133
-20 929 l-3 870 32 -35 c18 -19 231 -246 473 -505 474 -506 821 -876 1338
-1429 328 -351 329 -351 373 -354 l44 -3 0 1319 c0 1281 1 1321 20 1396 28
111 73 190 156 271 143 142 277 195 634 253 l55 9 -51 2 c-28 0 -53 -1 -55 -3z"/>
<path d="M11060 3934 c-169 -31 -223 -34 -840 -34 -494 0 -657 4 -735 15 -55
7 -140 16 -190 19 l-90 6 100 -19 c239 -44 393 -113 521 -233 75 -70 137 -184
155 -283 7 -40 11 -406 12 -1110 2 -938 0 -1056 -14 -1102 -9 -29 -14 -53 -12
-53 2 0 15 24 29 53 l26 52 -6 -45 c-16 -116 -126 -268 -257 -355 -122 -82
-205 -104 -489 -133 -66 -7 -12 -10 236 -11 555 -2 1804 13 1727 21 -147 15
-312 68 -438 141 -83 48 -200 162 -237 233 -65 121 -62 65 -66 1204 -2 731 0
1054 8 1100 24 139 115 275 243 362 123 84 333 156 514 177 l78 8 -100 1 c-55
0 -134 -6 -175 -14z m-1018 -1321 c3 -245 2 -479 -1 -633 -4 -136 -5 -147 -12
-85 -23 221 -22 845 2 845 5 0 10 -57 11 -127z"/>
</g>
</svg>
